<svg width="27" height="30" viewBox="0 0 27 30" fill="none" xmlns="http://www.w3.org/2000/svg">
<path d="M24.5898 10.2502H1.85986C1.53365 10.2502 1.2209 10.1206 0.990234 9.88995C0.759565 9.65928 0.629883 9.34648 0.629883 9.02026V7.09021C0.63253 6.25386 0.966754 5.4527 1.55908 4.86224C2.15141 4.27179 2.95368 3.94024 3.79004 3.94025H5.79004V1.73022C5.79004 1.40666 5.91867 1.09635 6.14746 0.867554C6.37626 0.638759 6.6862 0.510254 7.00977 0.510254H9.16016C9.48372 0.510254 9.79367 0.638759 10.0225 0.867554C10.2513 1.09635 10.3799 1.40666 10.3799 1.73022V3.94025H16.0801V1.73022C16.0827 1.40574 16.2135 1.09545 16.4438 0.866943C16.6742 0.638432 16.9856 0.510243 17.3101 0.510254H19.4502C19.7738 0.510254 20.0837 0.638759 20.3125 0.867554C20.5413 1.09635 20.6699 1.40666 20.6699 1.73022V3.94025H22.6699C23.5054 3.94025 24.3067 4.27211 24.8975 4.86285C25.4882 5.45359 25.8198 6.25478 25.8198 7.09021V9.02026C25.8198 9.18179 25.7884 9.34174 25.7266 9.49097C25.6647 9.6402 25.5742 9.77574 25.46 9.88995C25.3457 10.0042 25.2098 10.0948 25.0605 10.1566C24.9113 10.2184 24.7514 10.2502 24.5898 10.2502ZM3.79004 5.10022C3.25961 5.10022 2.75105 5.31096 2.37598 5.68604C2.0009 6.06111 1.79004 6.56979 1.79004 7.10022L1.8501 9.10022H24.5801L24.6401 7.10022C24.6401 6.56979 24.4293 6.06111 24.0542 5.68604C23.6791 5.31096 23.1706 5.10022 22.6401 5.10022H19.48V1.73022L17.2798 1.67023L17.21 5.10022H9.20996V1.73022L7 1.67023L6.93994 5.10022H3.79004ZM23.25 29.3002H3.56006C2.80593 29.2976 2.08359 28.9962 1.55127 28.462C1.01895 27.9278 0.72021 27.2044 0.720215 26.4503V14.3702C0.72021 13.6161 1.01895 12.8927 1.55127 12.3585C2.08359 11.8243 2.80593 11.5229 3.56006 11.5203H23.25C24.0041 11.5229 24.7265 11.8243 25.2588 12.3585C25.7911 12.8927 26.0898 13.6161 26.0898 14.3702V26.4902C26.0794 27.2374 25.7758 27.9506 25.2446 28.4762C24.7134 29.0018 23.9973 29.2977 23.25 29.3002ZM3.56006 12.6503C3.11449 12.6503 2.68713 12.8272 2.37207 13.1423C2.05701 13.4573 1.87988 13.8847 1.87988 14.3303V26.4503C1.87987 26.8967 2.05681 27.3251 2.37158 27.6417C2.68636 27.9584 3.11358 28.1376 3.56006 28.1403H23.25C23.6965 28.1376 24.1237 27.9584 24.4385 27.6417C24.7533 27.3251 24.9302 26.8967 24.9302 26.4503V14.3702C24.9302 13.9247 24.753 13.4974 24.438 13.1823C24.1229 12.8673 23.6956 12.6902 23.25 12.6902L3.56006 12.6503ZM9.87012 19.9102H4.22021V14.2703H9.87012V19.9102ZM4.7998 19.3303H9.29004V14.8502H4.7998V19.3303ZM16.25 19.9102H10.6001V14.2703H16.25V19.9102ZM11.1802 19.3303H15.6602V14.8502H11.1802V19.3303ZM22.5801 19.9102H16.9302V14.2703H22.5801V19.9102ZM17.5098 19.3303H22V14.8502H17.5098V19.3303ZM9.87012 26.8102H4.22021V21.1602H9.87012V26.8102ZM4.7998 26.2302H9.29004V21.7502H4.7998V26.2302ZM16.25 26.8102H10.6001V21.1602H16.25V26.8102ZM11.1802 26.2302H15.6602V21.7502H11.1802V26.2302ZM22.5801 26.8102H16.9302V21.1602H22.5801V26.8102ZM17.5098 26.2302H22V21.7502H17.5098V26.2302Z" fill="#0F2133"/>
</svg>
