<svg width="19" height="19" viewBox="0 0 19 19" fill="none" xmlns="http://www.w3.org/2000/svg">
<path d="M18.6982 9.31982C18.6982 11.7916 17.7166 14.1623 15.9688 15.9102C14.2209 17.658 11.8507 18.6401 9.37891 18.6401C6.90709 18.6401 4.53592 17.658 2.78809 15.9102C1.04025 14.1623 0.0585938 11.7916 0.0585938 9.31982C0.0585938 6.84801 1.04025 4.47733 2.78809 2.72949C4.53592 0.981653 6.90709 0 9.37891 0C11.8507 0 14.2209 0.981653 15.9688 2.72949C17.7166 4.47733 18.6982 6.84801 18.6982 9.31982Z" fill="url(#paint0_linear_64_2)"/>
<path d="M8.82812 15.45C7.82812 15.45 7.26855 14.9201 7.26855 14.1501C7.26855 13.0901 8.59863 9.35013 8.59863 8.88013C8.59863 8.80013 8.59871 8.67993 8.42871 8.67993C8.12871 8.67993 7.79828 8.95003 6.98828 9.53003L6.71875 9.13013C8.55875 7.82013 8.95879 7.32007 10.0088 7.32007C10.7488 7.32007 11.1182 7.55017 11.1182 8.17017C11.1182 8.98017 9.52832 13.0602 9.52832 13.9602C9.52519 14.0052 9.53173 14.0504 9.54785 14.0925C9.56397 14.1347 9.58969 14.1724 9.62207 14.2039C9.65445 14.2353 9.69275 14.2593 9.73535 14.2742C9.77795 14.289 9.82327 14.2948 9.86816 14.2903C10.4592 14.1195 11.0133 13.8378 11.499 13.4602L11.7988 13.8899C11.0788 14.4199 9.71812 15.45 8.82812 15.45Z" fill="white"/>
<path d="M10.6885 5.83032C10.3278 5.83032 9.98161 5.68693 9.72656 5.43188C9.47151 5.17684 9.32812 4.83067 9.32812 4.46997C9.32813 4.10928 9.47151 3.76359 9.72656 3.50854C9.98161 3.2535 10.3278 3.11011 10.6885 3.11011C11.0484 3.11272 11.393 3.25699 11.6475 3.51147C11.9019 3.76596 12.0462 4.11009 12.0488 4.46997C12.0462 4.82986 11.9019 5.17447 11.6475 5.42896C11.393 5.68344 11.0484 5.8277 10.6885 5.83032Z" fill="white"/>
<defs>
<linearGradient id="paint0_linear_64_2" x1="-206.438" y1="9.32007" x2="18.6982" y2="9.32007" gradientUnits="userSpaceOnUse">
<stop stop-color="#3661A8"/>
<stop offset="1" stop-color="#49A7DE"/>
</linearGradient>
</defs>
</svg>
