<svg width="101" height="101" viewBox="0 0 101 101" fill="none" xmlns="http://www.w3.org/2000/svg">
<g opacity="0.25">
<path d="M50.54 1V6.9" stroke="white" stroke-linecap="round" stroke-linejoin="round"/>
<path d="M50.54 1V6.9" stroke="white" stroke-linecap="round" stroke-linejoin="round"/>
<path opacity="0.25" d="M45.3594 1.27002L45.9795 7.14002" stroke="white" stroke-linecap="round" stroke-linejoin="round"/>
<path d="M45.3594 1.27002L45.9795 7.14002" stroke="white" stroke-linecap="round" stroke-linejoin="round"/>
<path opacity="0.25" d="M40.2402 2.08008L41.4702 7.86008" stroke="white" stroke-linecap="round" stroke-linejoin="round"/>
<path d="M40.2402 2.08008L41.4702 7.86008" stroke="white" stroke-linecap="round" stroke-linejoin="round"/>
<path opacity="0.25" d="M35.2305 3.41992L37.0605 9.03992" stroke="white" stroke-linecap="round" stroke-linejoin="round"/>
<path d="M35.2305 3.41992L37.0605 9.03992" stroke="white" stroke-linecap="round" stroke-linejoin="round"/>
<path d="M30.3896 5.28003L32.79 10.68" stroke="white" stroke-linecap="round" stroke-linejoin="round"/>
<path d="M30.3896 5.28003L32.79 10.68" stroke="white" stroke-linecap="round" stroke-linejoin="round"/>
<path d="M25.7695 7.62988L28.7192 12.7499" stroke="white" stroke-linecap="round" stroke-linejoin="round"/>
<path d="M25.7695 7.62988L28.7192 12.7499" stroke="white" stroke-linecap="round" stroke-linejoin="round"/>
<path d="M21.4199 10.46L24.8896 15.24" stroke="white" stroke-linecap="round" stroke-linejoin="round"/>
<path d="M21.4199 10.46L24.8896 15.24" stroke="white" stroke-linecap="round" stroke-linejoin="round"/>
<path d="M17.3896 13.72L21.3398 18.11" stroke="white" stroke-linecap="round" stroke-linejoin="round"/>
<path d="M17.3896 13.72L21.3398 18.11" stroke="white" stroke-linecap="round" stroke-linejoin="round"/>
<path d="M13.7305 17.3899L18.1104 21.3399" stroke="white" stroke-linecap="round" stroke-linejoin="round"/>
<path d="M13.7305 17.3899L18.1104 21.3399" stroke="white" stroke-linecap="round" stroke-linejoin="round"/>
<path d="M10.46 21.4199L15.2397 24.8899" stroke="white" stroke-linecap="round" stroke-linejoin="round"/>
<path d="M10.46 21.4199L15.2397 24.8899" stroke="white" stroke-linecap="round" stroke-linejoin="round"/>
<path d="M7.63965 25.77L12.75 28.72" stroke="white" stroke-linecap="round" stroke-linejoin="round"/>
<path d="M7.63965 25.77L12.75 28.72" stroke="white" stroke-linecap="round" stroke-linejoin="round"/>
<path d="M5.2793 30.3899L10.6792 32.7899" stroke="white" stroke-linecap="round" stroke-linejoin="round"/>
<path d="M5.2793 30.3899L10.6792 32.7899" stroke="white" stroke-linecap="round" stroke-linejoin="round"/>
<path d="M3.42969 35.23L9.04004 37.05" stroke="white" stroke-linecap="round" stroke-linejoin="round"/>
<path d="M3.42969 35.23L9.04004 37.05" stroke="white" stroke-linecap="round" stroke-linejoin="round"/>
<path d="M2.08008 40.24L7.85986 41.47" stroke="white" stroke-linecap="round" stroke-linejoin="round"/>
<path d="M2.08008 40.24L7.85986 41.47" stroke="white" stroke-linecap="round" stroke-linejoin="round"/>
<path d="M1.26953 45.3601L7.14941 45.9801" stroke="white" stroke-linecap="round" stroke-linejoin="round"/>
<path d="M1.26953 45.3601L7.14941 45.9801" stroke="white" stroke-linecap="round" stroke-linejoin="round"/>
<path d="M1 50.54H6.90967" stroke="white" stroke-linecap="round" stroke-linejoin="round"/>
<path d="M1 50.54H6.90967" stroke="white" stroke-linecap="round" stroke-linejoin="round"/>
<path d="M1.26953 55.7201L7.14941 55.1001" stroke="white" stroke-linecap="round" stroke-linejoin="round"/>
<path d="M1.26953 55.7201L7.14941 55.1001" stroke="white" stroke-linecap="round" stroke-linejoin="round"/>
<path d="M2.08008 60.8401L7.85986 59.6101" stroke="white" stroke-linecap="round" stroke-linejoin="round"/>
<path d="M2.08008 60.8401L7.85986 59.6101" stroke="white" stroke-linecap="round" stroke-linejoin="round"/>
<path d="M3.42969 65.85L9.04004 64.02" stroke="white" stroke-linecap="round" stroke-linejoin="round"/>
<path d="M3.42969 65.85L9.04004 64.02" stroke="white" stroke-linecap="round" stroke-linejoin="round"/>
<path d="M5.2793 70.69L10.6792 68.29" stroke="white" stroke-linecap="round" stroke-linejoin="round"/>
<path d="M5.2793 70.69L10.6792 68.29" stroke="white" stroke-linecap="round" stroke-linejoin="round"/>
<path d="M7.63965 75.3101L12.75 72.3601" stroke="white" stroke-linecap="round" stroke-linejoin="round"/>
<path d="M7.63965 75.3101L12.75 72.3601" stroke="white" stroke-linecap="round" stroke-linejoin="round"/>
<path d="M10.46 79.6599L15.2397 76.1899" stroke="white" stroke-linecap="round" stroke-linejoin="round"/>
<path d="M10.46 79.6599L15.2397 76.1899" stroke="white" stroke-linecap="round" stroke-linejoin="round"/>
<path d="M13.7305 83.69L18.1104 79.74" stroke="white" stroke-linecap="round" stroke-linejoin="round"/>
<path d="M13.7305 83.69L18.1104 79.74" stroke="white" stroke-linecap="round" stroke-linejoin="round"/>
<path d="M17.3896 87.35L21.3398 82.97" stroke="white" stroke-linecap="round" stroke-linejoin="round"/>
<path d="M17.3896 87.35L21.3398 82.97" stroke="white" stroke-linecap="round" stroke-linejoin="round"/>
<path d="M21.4199 90.6201L24.8896 85.8401" stroke="white" stroke-linecap="round" stroke-linejoin="round"/>
<path d="M21.4199 90.6201L24.8896 85.8401" stroke="white" stroke-linecap="round" stroke-linejoin="round"/>
<path d="M25.7695 93.4401L28.7192 88.3301" stroke="white" stroke-linecap="round" stroke-linejoin="round"/>
<path d="M25.7695 93.4401L28.7192 88.3301" stroke="white" stroke-linecap="round" stroke-linejoin="round"/>
<path d="M30.3896 95.7999L32.79 90.3999" stroke="white" stroke-linecap="round" stroke-linejoin="round"/>
<path d="M30.3896 95.7999L32.79 90.3999" stroke="white" stroke-linecap="round" stroke-linejoin="round"/>
<path d="M35.2305 97.65L37.0605 92.04" stroke="white" stroke-linecap="round" stroke-linejoin="round"/>
<path d="M35.2305 97.65L37.0605 92.04" stroke="white" stroke-linecap="round" stroke-linejoin="round"/>
<path d="M40.2402 99L41.4702 93.22" stroke="white" stroke-linecap="round" stroke-linejoin="round"/>
<path d="M40.2402 99L41.4702 93.22" stroke="white" stroke-linecap="round" stroke-linejoin="round"/>
<path d="M45.3594 99.8099L45.9795 93.9299" stroke="white" stroke-linecap="round" stroke-linejoin="round"/>
<path d="M45.3594 99.8099L45.9795 93.9299" stroke="white" stroke-linecap="round" stroke-linejoin="round"/>
<path d="M50.54 100.08V94.1699" stroke="white" stroke-linecap="round" stroke-linejoin="round"/>
<path d="M50.54 100.08V94.1699" stroke="white" stroke-linecap="round" stroke-linejoin="round"/>
<path d="M55.7197 99.8099L55.0996 93.9299" stroke="white" stroke-linecap="round" stroke-linejoin="round"/>
<path d="M55.7197 99.8099L55.0996 93.9299" stroke="white" stroke-linecap="round" stroke-linejoin="round"/>
<path d="M60.8394 99L59.6094 93.22" stroke="white" stroke-linecap="round" stroke-linejoin="round"/>
<path d="M60.8394 99L59.6094 93.22" stroke="white" stroke-linecap="round" stroke-linejoin="round"/>
<path d="M65.8491 97.65L64.0293 92.04" stroke="white" stroke-linecap="round" stroke-linejoin="round"/>
<path d="M65.8491 97.65L64.0293 92.04" stroke="white" stroke-linecap="round" stroke-linejoin="round"/>
<path d="M70.6899 95.7999L68.29 90.3999" stroke="white" stroke-linecap="round" stroke-linejoin="round"/>
<path d="M70.6899 95.7999L68.29 90.3999" stroke="white" stroke-linecap="round" stroke-linejoin="round"/>
<path d="M75.3096 93.4401L72.3594 88.3301" stroke="white" stroke-linecap="round" stroke-linejoin="round"/>
<path d="M75.3096 93.4401L72.3594 88.3301" stroke="white" stroke-linecap="round" stroke-linejoin="round"/>
<path d="M79.6592 90.6201L76.1895 85.8401" stroke="white" stroke-linecap="round" stroke-linejoin="round"/>
<path d="M79.6592 90.6201L76.1895 85.8401" stroke="white" stroke-linecap="round" stroke-linejoin="round"/>
<path d="M83.6904 87.35L79.7402 82.97" stroke="white" stroke-linecap="round" stroke-linejoin="round"/>
<path d="M83.6904 87.35L79.7402 82.97" stroke="white" stroke-linecap="round" stroke-linejoin="round"/>
<path d="M87.3599 83.69L82.9697 79.74" stroke="white" stroke-linecap="round" stroke-linejoin="round"/>
<path d="M87.3599 83.69L82.9697 79.74" stroke="white" stroke-linecap="round" stroke-linejoin="round"/>
<path d="M90.6196 79.6599L85.8398 76.1899" stroke="white" stroke-linecap="round" stroke-linejoin="round"/>
<path d="M90.6196 79.6599L85.8398 76.1899" stroke="white" stroke-linecap="round" stroke-linejoin="round"/>
<path d="M93.4497 75.3101L88.3301 72.3601" stroke="white" stroke-linecap="round" stroke-linejoin="round"/>
<path d="M93.4497 75.3101L88.3301 72.3601" stroke="white" stroke-linecap="round" stroke-linejoin="round"/>
<path d="M95.8003 70.69L90.4004 68.29" stroke="white" stroke-linecap="round" stroke-linejoin="round"/>
<path d="M95.8003 70.69L90.4004 68.29" stroke="white" stroke-linecap="round" stroke-linejoin="round"/>
<path d="M97.6597 65.85L92.04 64.02" stroke="white" stroke-linecap="round" stroke-linejoin="round"/>
<path d="M97.6597 65.85L92.04 64.02" stroke="white" stroke-linecap="round" stroke-linejoin="round"/>
<path d="M99 60.8401L93.2197 59.6101" stroke="white" stroke-linecap="round" stroke-linejoin="round"/>
<path d="M99 60.8401L93.2197 59.6101" stroke="white" stroke-linecap="round" stroke-linejoin="round"/>
<path d="M99.8096 55.7201L93.9395 55.1001" stroke="white" stroke-linecap="round" stroke-linejoin="round"/>
<path d="M99.8096 55.7201L93.9395 55.1001" stroke="white" stroke-linecap="round" stroke-linejoin="round"/>
<path d="M100.08 50.54H94.1797" stroke="white" stroke-linecap="round" stroke-linejoin="round"/>
<path d="M100.08 50.54H94.1797" stroke="white" stroke-linecap="round" stroke-linejoin="round"/>
<path d="M99.8096 45.3601L93.9395 45.9801" stroke="white" stroke-linecap="round" stroke-linejoin="round"/>
<path d="M99.8096 45.3601L93.9395 45.9801" stroke="white" stroke-linecap="round" stroke-linejoin="round"/>
<path d="M99 40.24L93.2197 41.47" stroke="white" stroke-linecap="round" stroke-linejoin="round"/>
<path d="M99 40.24L93.2197 41.47" stroke="white" stroke-linecap="round" stroke-linejoin="round"/>
<path d="M97.6597 35.23L92.04 37.05" stroke="white" stroke-linecap="round" stroke-linejoin="round"/>
<path d="M97.6597 35.23L92.04 37.05" stroke="white" stroke-linecap="round" stroke-linejoin="round"/>
<path d="M95.8003 30.3899L90.4004 32.7899" stroke="white" stroke-linecap="round" stroke-linejoin="round"/>
<path d="M95.8003 30.3899L90.4004 32.7899" stroke="white" stroke-linecap="round" stroke-linejoin="round"/>
<path d="M93.4497 25.77L88.3301 28.72" stroke="white" stroke-linecap="round" stroke-linejoin="round"/>
<path d="M93.4497 25.77L88.3301 28.72" stroke="white" stroke-linecap="round" stroke-linejoin="round"/>
<path d="M90.6196 21.4199L85.8398 24.8899" stroke="white" stroke-linecap="round" stroke-linejoin="round"/>
<path d="M90.6196 21.4199L85.8398 24.8899" stroke="white" stroke-linecap="round" stroke-linejoin="round"/>
<path d="M87.3599 17.3899L82.9697 21.3399" stroke="white" stroke-linecap="round" stroke-linejoin="round"/>
<path d="M87.3599 17.3899L82.9697 21.3399" stroke="white" stroke-linecap="round" stroke-linejoin="round"/>
<path d="M83.6904 13.72L79.7402 18.11" stroke="white" stroke-linecap="round" stroke-linejoin="round"/>
<path d="M83.6904 13.72L79.7402 18.11" stroke="white" stroke-linecap="round" stroke-linejoin="round"/>
<path d="M79.6592 10.46L76.1895 15.24" stroke="white" stroke-linecap="round" stroke-linejoin="round"/>
<path d="M79.6592 10.46L76.1895 15.24" stroke="white" stroke-linecap="round" stroke-linejoin="round"/>
<path d="M75.3096 7.62988L72.3594 12.7499" stroke="white" stroke-linecap="round" stroke-linejoin="round"/>
<path d="M75.3096 7.62988L72.3594 12.7499" stroke="white" stroke-linecap="round" stroke-linejoin="round"/>
<path d="M70.6899 5.28003L68.29 10.68" stroke="white" stroke-linecap="round" stroke-linejoin="round"/>
<path d="M70.6899 5.28003L68.29 10.68" stroke="white" stroke-linecap="round" stroke-linejoin="round"/>
<path d="M65.8491 3.41992L64.0293 9.03992" stroke="white" stroke-linecap="round" stroke-linejoin="round"/>
<path d="M65.8491 3.41992L64.0293 9.03992" stroke="white" stroke-linecap="round" stroke-linejoin="round"/>
<path d="M60.8394 2.08008L59.6094 7.86008" stroke="white" stroke-linecap="round" stroke-linejoin="round"/>
<path d="M60.8394 2.08008L59.6094 7.86008" stroke="white" stroke-linecap="round" stroke-linejoin="round"/>
<path d="M55.7197 1.27002L55.0996 7.14002" stroke="white" stroke-linecap="round" stroke-linejoin="round"/>
<path d="M55.7197 1.27002L55.0996 7.14002" stroke="white" stroke-linecap="round" stroke-linejoin="round"/>
</g>
</svg>
