<svg width="173" height="172" viewBox="0 0 173 172" fill="none" xmlns="http://www.w3.org/2000/svg">
<path opacity="0.35" d="M86.4097 171.79C133.807 171.79 172.23 133.367 172.23 85.9697C172.23 38.5727 133.807 0.150391 86.4097 0.150391C39.0126 0.150391 0.589844 38.5727 0.589844 85.9697C0.589844 133.367 39.0126 171.79 86.4097 171.79Z" fill="#08182B"/>
<path d="M86.4097 158.74C126.599 158.74 159.18 126.159 159.18 85.9697C159.18 45.78 126.599 13.2002 86.4097 13.2002C46.2199 13.2002 13.6396 45.78 13.6396 85.9697C13.6396 126.159 46.2199 158.74 86.4097 158.74Z" fill="#08182B"/>
<path d="M51.2197 83.3496L83.4897 110.12L121.61 61.8203" stroke="white" stroke-width="5" stroke-linecap="round" stroke-linejoin="round"/>
</svg>
