<svg width="261" height="180" viewBox="0 0 261 180" fill="none" xmlns="http://www.w3.org/2000/svg">
<path d="M161.761 0.664781C213.471 7.58478 190.661 45.2746 223.571 51.5246C256.481 57.7746 249.221 120.774 218.791 134.994C188.361 149.214 177.711 112.444 147.561 130.844C117.411 149.244 61.0305 150.484 61.6505 121.784C62.2705 93.0844 53.4007 125.325 36.3807 94.0246C19.3607 62.7246 54.6106 23.6047 90.2606 28.6247C112.901 31.8147 116.541 -5.37522 161.761 0.664781Z" fill="#BFE8F7"/>
<path d="M170.02 164.644H248.62C248.62 164.644 258.32 159.524 251.53 121.334C249.15 107.954 269.83 78.0245 254.93 74.9545C236.48 71.1645 228.93 92.6441 227.93 105.074C226.93 117.504 212.5 124.004 209.93 142.424C209.93 142.424 208.11 127.324 215.2 117.224C222.29 107.124 225.11 78.5042 208.69 60.6742C192.27 42.8442 188.78 79.5642 188.23 88.2142C186.99 107.454 169.85 120.774 180.61 141.784C180.61 141.784 173.66 131.154 173.66 113.474C173.66 95.794 170.39 73.3045 153.51 76.2045C142 78.2045 158.02 95.424 152.12 113.474C146.22 131.524 150.13 160.194 170.02 164.644Z" fill="#A9C2FF"/>
<path d="M185.43 100.534C185.43 100.534 169.23 126.324 180.59 141.784C180.59 141.784 151.98 141.254 151.48 115.564C151.48 115.564 139.29 153.835 170.02 164.645H251.02C251.02 164.645 260.581 158.195 255.881 141.145C252.481 128.815 249.571 114.375 253.131 108.895C253.131 108.895 245.2 114.735 243.74 124.685C242.28 134.635 247.67 155.084 223.84 155.994C200.01 156.904 205.01 147.294 198.05 133.074C191.09 118.854 184.07 121.614 185.43 100.534Z" fill="#99AEF9"/>
<path d="M228.43 159.734L228.17 159.324C238.75 152.834 237.94 139.984 237.17 127.554C236.81 121.674 236.46 116.135 237.23 111.185C238.951 101.281 242.77 91.8605 248.43 83.5542L248.82 83.8442C243.205 92.0857 239.414 101.431 237.7 111.254C236.95 116.154 237.29 121.674 237.7 127.524C238.43 140.094 239.25 153.094 228.43 159.734Z" fill="white"/>
<path d="M201.87 159.694C190.08 146.414 196.38 123.044 200.99 105.974C202.09 101.884 203.05 98.3443 203.63 95.4043C206.57 80.4643 201.88 69.4045 201.83 69.3145L202.27 69.1143C202.27 69.2243 207.07 80.4141 204.1 95.4941C203.52 98.4941 202.56 102.004 201.46 106.104C196.88 123.104 190.61 146.284 202.23 159.364L201.87 159.694Z" fill="white"/>
<path d="M180.5 157.464C160.04 149.694 163.24 125.114 165.36 108.854C166.59 99.3845 165.19 93.0343 163.8 89.3843C163.081 87.2733 161.945 85.3284 160.46 83.6646L160.79 83.3145C160.86 83.3845 168.24 90.5346 165.79 108.915C163.13 129.385 162.07 149.964 180.62 157.004L180.5 157.464Z" fill="white"/>
<path d="M0 164.644H157.66C157.66 164.644 151.93 149.764 133.28 148.804C114.63 147.844 130.81 106.734 89 108.604C33.59 111.094 69.5701 148.184 36.0701 142.104C9.03007 137.204 0 164.644 0 164.644Z" fill="#ABE1EF"/>
<path d="M43.5706 164.645C43.5706 164.645 20.2705 161.545 30.9505 121.335C35.7405 103.335 18.9506 88.4244 14.5506 74.8644C6.68061 50.5344 31.2405 42.3244 47.7405 66.4044C69.6305 98.3444 73.8904 108.734 70.1404 136.404C70.1404 136.404 81.5206 125.315 73.0206 105.105C64.5206 84.8946 64.0905 79.6343 70.7105 59.5343C77.3305 39.4343 74.6306 25.7943 92.0106 24.0143C121.201 21.0143 103.011 78.9344 107.371 91.1344C111.731 103.334 123.16 113.464 113.18 135.364C113.18 135.364 129.831 130.244 126.011 107.364C122.191 84.4844 131.741 71.4146 143.231 73.8146C154.721 76.2146 146.281 89.5544 148.801 107.154C151.321 124.754 161.751 141.475 132.511 164.665L43.5706 164.645Z" fill="#7CDDE0"/>
<path d="M22.3701 89.8442C22.3701 89.8442 34.0101 94.3445 39.8201 108.895C45.6301 123.445 44.3801 152.075 72.6001 154.145C100.82 156.215 111.8 100.634 111.8 100.634C111.8 100.634 125.12 119.874 113.18 135.354C113.18 135.354 127.18 129.965 126.42 110.455C126.42 110.455 130.49 141.984 148.85 146.404C148.85 146.404 142.21 160.205 132.51 164.645H41.8899C41.8899 164.645 24.8901 160.644 28.3701 135.314C31.4601 112.744 34.7601 108.114 22.3701 89.8442Z" fill="#7DCEDB"/>
<path d="M69.3098 162.464C56.3998 151.594 54.5698 136.544 52.7998 121.994C51.7398 113.314 50.7398 105.114 47.5198 97.9243C38.8998 78.6843 30.8798 68.1942 30.7998 68.0942L31.1897 67.7944C31.2697 67.9044 39.3097 78.4341 47.9597 97.7241C51.2197 104.984 52.2198 113.215 53.2798 121.935C55.0398 136.395 56.8599 151.344 69.6299 162.094L69.3098 162.464Z" fill="white"/>
<path d="M88.8401 147.904L88.4399 147.634C104.2 124.684 96.13 109.314 89.01 95.7544C86.01 90.0144 83.1501 84.5944 82.6101 79.2344C81.6901 70.0944 84.9401 59.5843 87.8301 52.3843C89.6967 47.7163 91.8885 43.1851 94.3899 38.8242L94.8 39.0742C92.3169 43.4179 90.1383 47.9287 88.28 52.5742C85.41 59.7242 82.1801 70.1446 83.1001 79.1846C83.6301 84.4546 86.4499 89.8344 89.4399 95.5244C92.8799 102.084 96.79 109.524 97.75 118.034C98.85 127.804 95.9401 137.574 88.8401 147.904Z" fill="white"/>
<path d="M118.131 162.464L117.94 162.014C130.11 156.954 135.16 144.505 137.26 134.955C139.556 124.069 139.502 112.818 137.101 101.955C132.951 84.9546 140.231 80.7342 140.541 80.5542L140.771 80.9844C140.701 80.9844 133.521 85.2245 137.571 101.834C140.003 112.782 140.057 124.124 137.73 135.094C135.61 144.714 130.491 157.314 118.131 162.464Z" fill="white"/>
<path d="M169.69 40.8745H132.68C122.198 40.8745 113.7 49.3721 113.7 59.8545V149.135C113.7 159.617 122.198 168.115 132.68 168.115H169.69C180.173 168.115 188.67 159.617 188.67 149.135V59.8545C188.67 49.3721 180.173 40.8745 169.69 40.8745Z" fill="white"/>
<path d="M180.11 50.6543H122.271V149.434H180.11V50.6543Z" fill="#DCEAFF"/>
<path d="M151.18 165.114C154.609 165.114 157.39 162.334 157.39 158.904C157.39 155.475 154.609 152.694 151.18 152.694C147.75 152.694 144.97 155.475 144.97 158.904C144.97 162.334 147.75 165.114 151.18 165.114Z" fill="#C3DAF6"/>
<path d="M161.34 44.5146H141.04C140.493 44.5146 140.05 44.9579 140.05 45.5046V46.3047C140.05 46.8514 140.493 47.2947 141.04 47.2947H161.34C161.887 47.2947 162.33 46.8514 162.33 46.3047V45.5046C162.33 44.9579 161.887 44.5146 161.34 44.5146Z" fill="#C3DAF6"/>
<path d="M167.82 57.2847H143.68C140.2 57.2847 137.38 60.1052 137.38 63.5846V68.6647C137.38 72.1441 140.2 74.9646 143.68 74.9646H167.82C171.299 74.9646 174.12 72.1441 174.12 68.6647V63.5846C174.12 60.1052 171.299 57.2847 167.82 57.2847Z" fill="#25468F"/>
<path d="M167.82 102.495H143.68C140.2 102.495 137.38 105.315 137.38 108.795V113.875C137.38 117.354 140.2 120.175 143.68 120.175H167.82C171.299 120.175 174.12 117.354 174.12 113.875V108.795C174.12 105.315 171.299 102.495 167.82 102.495Z" fill="#A9C2FF"/>
<path d="M158.209 79.3345H133.629C130.15 79.3345 127.329 82.1551 127.329 85.6345V90.7145C127.329 94.1939 130.15 97.0145 133.629 97.0145H158.209C161.689 97.0145 164.509 94.1939 164.509 90.7145V85.6345C164.509 82.1551 161.689 79.3345 158.209 79.3345Z" fill="white"/>
<path d="M158.209 125.114H133.629C130.15 125.114 127.329 127.935 127.329 131.414V136.494C127.329 139.974 130.15 142.794 133.629 142.794H158.209C161.689 142.794 164.509 139.974 164.509 136.494V131.414C164.509 127.935 161.689 125.114 158.209 125.114Z" fill="white"/>
<path d="M168.021 61.7144H143.28V63.2744H168.021V61.7144Z" fill="#231733"/>
<path d="M168.021 65.5146H143.28V67.0747H168.021V65.5146Z" fill="#231733"/>
<path d="M154.38 69.3145H143.28V70.8744H154.38V69.3145Z" fill="#231733"/>
<path d="M157.34 83.6045H132.6V85.1646H157.34V83.6045Z" fill="#231733"/>
<path d="M157.34 87.4043H132.6V88.9642H157.34V87.4043Z" fill="#231733"/>
<path d="M143.7 91.2046H132.6V92.7645H143.7V91.2046Z" fill="#231733"/>
<path d="M157.34 129.385H132.6V130.945H157.34V129.385Z" fill="#231733"/>
<path d="M157.34 133.175H132.6V134.735H157.34V133.175Z" fill="#231733"/>
<path d="M143.7 136.984H132.6V138.544H143.7V136.984Z" fill="#231733"/>
<path d="M168.021 106.754H143.28V108.314H168.021V106.754Z" fill="#231733"/>
<path d="M168.021 110.555H143.28V112.115H168.021V110.555Z" fill="#231733"/>
<path d="M154.38 114.354H143.28V115.915H154.38V114.354Z" fill="#231733"/>
<path d="M152.51 33.4644C152.507 31.9207 151.893 30.4406 150.803 29.3481C149.712 28.2557 148.233 27.6396 146.69 27.6343H105.54C104.003 27.6501 102.534 28.271 101.452 29.3623C100.37 30.4537 99.7623 31.9276 99.7598 33.4644V37.1743H152.56L152.51 33.4644Z" fill="#E63D52"/>
<path d="M99.7598 37.1943V65.2642C99.765 66.8078 100.381 68.2868 101.474 69.3774C102.566 70.468 104.046 71.0818 105.59 71.0845H146.74C148.282 71.0792 149.759 70.4643 150.849 69.374C151.94 68.2837 152.555 66.8061 152.56 65.2642V37.1943H99.7598Z" fill="white"/>
<path d="M107.68 24.8447H106.82C106.234 24.8447 105.76 25.3194 105.76 25.9048V31.3647C105.76 31.9502 106.234 32.4248 106.82 32.4248H107.68C108.265 32.4248 108.74 31.9502 108.74 31.3647V25.9048C108.74 25.3194 108.265 24.8447 107.68 24.8447Z" fill="#231733"/>
<path d="M112.909 24.8447H112.049C111.464 24.8447 110.989 25.3194 110.989 25.9048V31.3647C110.989 31.9502 111.464 32.4248 112.049 32.4248H112.909C113.495 32.4248 113.969 31.9502 113.969 31.3647V25.9048C113.969 25.3194 113.495 24.8447 112.909 24.8447Z" fill="#231733"/>
<path d="M139.34 24.8447H138.48C137.895 24.8447 137.42 25.3194 137.42 25.9048V31.3647C137.42 31.9502 137.895 32.4248 138.48 32.4248H139.34C139.925 32.4248 140.4 31.9502 140.4 31.3647V25.9048C140.4 25.3194 139.925 24.8447 139.34 24.8447Z" fill="#231733"/>
<path d="M144.56 24.8447H143.7C143.114 24.8447 142.64 25.3194 142.64 25.9048V31.3647C142.64 31.9502 143.114 32.4248 143.7 32.4248H144.56C145.145 32.4248 145.62 31.9502 145.62 31.3647V25.9048C145.62 25.3194 145.145 24.8447 144.56 24.8447Z" fill="#231733"/>
<path d="M111.069 39.5947H103.819V46.8447H111.069V39.5947Z" fill="#CDCECF"/>
<path d="M120.28 39.5947H113.03V46.8447H120.28V39.5947Z" fill="#CDCECF"/>
<path d="M129.71 39.5947H122.46V46.8447H129.71V39.5947Z" fill="#CDCECF"/>
<path d="M138.92 39.5947H131.67V46.8447H138.92V39.5947Z" fill="#CDCECF"/>
<path d="M148.28 39.5947H141.03V46.8447H148.28V39.5947Z" fill="#CDCECF"/>
<path d="M111.069 49.0347H103.819V56.2847H111.069V49.0347Z" fill="#CDCECF"/>
<path d="M120.28 49.0347H113.03V56.2847H120.28V49.0347Z" fill="#E63D52"/>
<path d="M129.71 49.0347H122.46V56.2847H129.71V49.0347Z" fill="#CDCECF"/>
<path d="M138.92 49.0347H131.67V56.2847H138.92V49.0347Z" fill="#CDCECF"/>
<path d="M148.28 49.0347H141.03V56.2847H148.28V49.0347Z" fill="#CDCECF"/>
<path d="M111.069 57.9346H103.819V65.1846H111.069V57.9346Z" fill="#CDCECF"/>
<path d="M120.28 57.9346H113.03V65.1846H120.28V57.9346Z" fill="#CDCECF"/>
<path d="M129.71 57.9346H122.46V65.1846H129.71V57.9346Z" fill="#CDCECF"/>
<path d="M138.92 57.9346H131.67V65.1846H138.92V57.9346Z" fill="#CDCECF"/>
<path d="M148.28 57.9346H141.03V65.1846H148.28V57.9346Z" fill="#CDCECF"/>
<path d="M188.37 45.8243C199.957 45.8243 209.35 36.4312 209.35 24.8442C209.35 13.2573 199.957 3.86426 188.37 3.86426C176.783 3.86426 167.39 13.2573 167.39 24.8442C167.39 36.4312 176.783 45.8243 188.37 45.8243Z" fill="#99AEF9"/>
<path d="M188.37 41.4247C197.527 41.4247 204.95 34.0015 204.95 24.8446C204.95 15.6877 197.527 8.26465 188.37 8.26465C179.213 8.26465 171.79 15.6877 171.79 24.8446C171.79 34.0015 179.213 41.4247 188.37 41.4247Z" fill="white"/>
<path d="M188.37 28.4644C188.204 28.4603 188.04 28.4206 187.89 28.3481C187.74 28.2757 187.607 28.1723 187.5 28.0444L180.5 20.0444C180.291 19.8009 180.187 19.4846 180.209 19.1646C180.232 18.8445 180.379 18.5465 180.62 18.3345C180.864 18.1256 181.18 18.021 181.5 18.0435C181.82 18.0659 182.118 18.2138 182.33 18.4546L188.48 25.5142L197.21 16.8643C197.439 16.6371 197.748 16.5098 198.07 16.5098C198.392 16.5098 198.701 16.6371 198.93 16.8643C199.043 16.9759 199.133 17.1091 199.195 17.2559C199.256 17.4026 199.288 17.5601 199.288 17.7192C199.288 17.8784 199.256 18.0358 199.195 18.1826C199.133 18.3294 199.043 18.4626 198.93 18.5742L189.28 28.1445C189.157 28.2555 189.013 28.3406 188.857 28.3955C188.701 28.4504 188.535 28.474 188.37 28.4644Z" fill="#E63D52"/>
<path d="M85.7602 56.5742C85.7602 56.5742 87.6803 51.2942 90.3203 51.5742C92.9603 51.8542 96.1102 58.7743 96.2102 61.1743C96.3102 63.5743 92.6702 64.0742 91.9502 65.5142C91.2302 66.9542 90.2702 72.3046 92.7202 73.4146C93.5402 73.7846 93.5002 79.8342 94.4602 81.5142C95.4202 83.1942 96.7903 96.1343 96.7903 96.1343L77.3103 95.6543C77.3103 95.6543 75.6102 80.0045 79.2102 78.0845C82.8102 76.1645 85.2602 76.3644 85.7402 72.5244C86.2202 68.6844 84.1502 62.6942 85.7602 56.5742Z" fill="#FCA692"/>
<path d="M92.6904 52.2344C93.9104 54.0944 87.1804 56.1145 87.2404 56.6445C87.3004 57.1745 89.2405 60.5242 88.8005 60.5742C88.3605 60.6242 86.9204 59.4345 86.2304 60.3945C85.5404 61.3545 85.7705 61.8044 87.1005 62.5044C88.4305 63.2044 89.1004 62.1945 89.2204 62.4145C89.3404 62.6345 86.0204 71.8445 82.2204 60.4145C81.2204 57.4145 83.2204 57.1945 82.7504 55.8545C82.2804 54.5145 87.7604 44.7344 92.6904 52.2344Z" fill="#0B3563"/>
<path d="M93.2501 53.9045C94.2713 54.8955 95.2205 55.9584 96.0902 57.0847C96.0902 57.3347 95.4102 58.8845 95.0902 58.8845C94.7702 58.8845 92.9301 53.8645 93.2501 53.9045Z" fill="#FCA692"/>
<path d="M92.0596 56.3944C92.0596 56.3944 93.0595 57.0842 92.5295 57.6942C91.9995 58.3042 90.9796 56.0344 92.0596 56.3944Z" fill="#231733"/>
<path d="M94.0801 59.7441C94.0801 59.7441 95.23 61.0441 95.77 59.7441C95.77 59.7441 95.99 61.0044 95.23 61.0444C94.47 61.0844 94.0801 59.7441 94.0801 59.7441Z" fill="#231733"/>
<path d="M91.7598 55.3743C91.7598 55.3743 90.7598 56.5643 90.7598 56.3743C90.7598 56.1843 90.7598 54.8843 91.7598 55.3743Z" fill="#231733"/>
<path d="M95.1795 172.605C95.1795 172.605 94.4395 178.365 95.1795 178.755C95.9195 179.145 107.879 179.525 108.659 178.755C109.439 177.985 101.449 173.405 101.199 172.415C100.949 171.425 95.1795 172.605 95.1795 172.605Z" fill="#231733"/>
<path d="M65.6491 165.854C65.6491 165.854 61.9791 170.364 62.4091 171.084C62.8391 171.804 72.7993 178.425 73.8593 178.185C74.9193 177.945 70.5593 169.834 70.8593 168.864C71.1593 167.894 65.6491 165.854 65.6491 165.854Z" fill="#231733"/>
<path d="M87.7598 77.6142C87.7598 77.6142 98.1498 78.9242 102.54 73.9242C106.93 68.9242 111.64 55.7143 115.77 53.5243C119.9 51.3343 115.08 55.5242 114.99 56.3642C114.9 57.2042 117.56 57.6843 117.43 60.0043C117.3 62.3243 115.17 62.0642 114.05 64.9042C112.93 67.7442 110.53 89.1841 88.9197 89.5541C88.9497 89.5541 88.1098 81.0342 87.7598 77.6142Z" fill="#FCA692"/>
<path d="M84.47 71.8845C84.47 71.8845 92.38 71.2845 92.95 72.1945C93.331 72.8782 93.5914 73.6226 93.72 74.3947C94.8368 76.3096 96.4922 77.8536 98.48 78.8347C103.3 81.3347 96.17 90.8347 98.48 98.0847C99.93 102.665 100.2 109.994 100.2 109.994L74.3701 109.344C74.3701 109.344 76.4601 96.2344 74.8101 85.8444C73.4401 77.2044 83.8101 75.2345 83.8101 74.9245C83.8101 74.6145 84.1 71.9145 84.47 71.8845Z" fill="#FDDBBA"/>
<path d="M100.24 80.4644C100.24 80.4644 106.85 98.4642 112.49 100.554C118.13 102.644 128.01 104.094 129.49 105.734C130.97 107.374 125.93 105.734 125.93 105.734C125.93 105.734 129.79 107.354 129.79 108.044C129.79 108.734 125.39 107.254 125.39 107.254C125.39 107.254 128.97 108.755 128.7 109.435C128.43 110.115 126.65 110.005 124.7 109.435C122.75 108.865 112.65 109.314 107.81 106.634C102.97 103.954 93.1199 90.7542 92.9199 89.3042C92.7199 87.8542 100.24 80.4644 100.24 80.4644Z" fill="#FCA692"/>
<path d="M98.6402 97.1145C98.6402 97.1145 106.24 92.3945 106.24 90.8445C106.24 89.2945 100.64 75.9247 91.6803 74.6247C85.7903 73.7747 88.6804 83.7645 90.1004 88.3845C91.5204 93.0045 96.5402 97.2345 98.6402 97.1145Z" fill="#FDDBBA"/>
<path d="M75.2297 101.284C75.2297 101.284 95.9697 109.054 96.5597 111.034C97.1497 113.014 96.6197 135.035 93.0197 142.145C89.4197 149.255 75.0997 172.255 74.0197 171.145C72.9397 170.035 61.7896 164.674 61.6996 164.304C61.6096 163.934 76.3297 139.764 77.0397 138.494C77.7497 137.224 77.2497 129.744 75.8197 120.924C74.3897 112.104 70.9597 111.624 75.2297 101.284Z" fill="#FC7600"/>
<path d="M89.2196 62.4644C89.2196 62.4644 90.4998 66.4644 88.1298 67.9644C85.7598 69.4644 89.5597 74.3945 84.7697 76.3345C81.3397 77.7245 81.5397 77.3841 79.2397 82.9741C77.8497 86.3441 70.8297 87.8344 68.0197 83.7344C66.4397 81.4444 66.4698 75.6045 69.8498 74.6245C72.7598 73.7845 69.5796 65.6242 75.2196 63.3242C82.2196 60.4442 76.1497 55.3246 84.5597 51.9546C84.5597 51.9546 83.5597 60.4445 85.2497 62.6245C86.9397 64.8045 89.2196 62.4644 89.2196 62.4644Z" fill="#0B3563"/>
<path d="M75.2197 101.364C75.2197 101.364 97.8698 99.6242 99.2698 101.364C100.67 103.104 109.53 125.744 109.22 134.684C108.91 143.624 106.35 172.744 104.79 172.604C101.79 172.324 91.1997 172.954 90.9497 172.604C90.6997 172.254 92.6698 140.054 92.7798 138.444C92.8898 136.834 89.2597 129.444 84.1597 121.114C79.0597 112.784 75.6397 113.874 75.2197 101.364Z" fill="#FF912B"/>
<path d="M214.02 56.5742C214.02 56.5742 212.099 51.2942 209.459 51.5742C206.819 51.8542 203.67 58.7743 203.57 61.1743C203.47 63.5743 207.11 64.0742 207.83 65.5142C208.55 66.9542 209.46 72.2146 207.06 73.4146C204.66 74.6146 205.84 77.3542 204.88 79.0342C203.92 80.7142 202.979 96.1343 202.979 96.1343L222.469 95.6543C222.469 95.6543 224.17 80.0045 220.57 78.0845C216.97 76.1645 214.57 76.3644 214.04 72.5244C213.51 68.6844 215.67 62.6942 214.02 56.5742Z" fill="#FCA692"/>
<path d="M207.12 52.2342C205.91 54.0942 212.12 53.0543 212.58 56.6443C212.64 57.1843 210.58 60.524 211.02 60.574C211.46 60.624 212.9 59.4343 213.59 60.3943C214.28 61.3543 214.05 61.8042 212.72 62.5042C211.39 63.2042 210.72 62.1944 210.6 62.4144C210.48 62.6344 214.72 70.6939 218.53 59.2439C219.53 56.2439 215.47 56.8343 216.81 56.3543C219.1 55.5243 212.05 44.7342 207.12 52.2342Z" fill="#0B3563"/>
<path d="M206.57 53.9045C205.548 54.8955 204.599 55.9584 203.729 57.0847C203.729 57.3347 204.409 58.8845 204.729 58.8845C205.049 58.8845 206.89 53.8645 206.57 53.9045Z" fill="#FCA692"/>
<path d="M207.76 56.3944C207.76 56.3944 206.76 57.0842 207.29 57.6942C207.82 58.3042 208.84 56.0344 207.76 56.3944Z" fill="#231733"/>
<path d="M205.76 59.7441C205.76 59.7441 204.61 61.0441 204.07 59.7441C204.07 59.7441 203.85 61.0044 204.61 61.0444C205.37 61.0844 205.76 59.7441 205.76 59.7441Z" fill="#231733"/>
<path d="M208.11 55.3743C208.11 55.3743 209.11 56.5643 209.11 56.3743C209.11 56.1843 209.09 54.8843 208.11 55.3743Z" fill="#231733"/>
<path d="M209.15 53.7641C209.15 53.7641 206.76 53.5644 206.3 51.5244C205.84 49.4844 208.82 46.6841 211.52 46.7441C214.22 46.8041 211.22 48.4843 211.22 48.4843C211.22 48.4843 214.11 47.4843 214.97 48.4843C215.83 49.4843 213.59 49.4243 213.76 50.4243C214.05 52.1743 211.76 53.6341 209.15 53.7641Z" fill="#0B3563"/>
<path d="M242.44 165.854C242.44 165.854 246.11 170.364 245.69 171.084C245.27 171.804 235.29 178.425 234.23 178.185C233.17 177.945 237.54 169.834 237.23 168.864C236.92 167.894 242.44 165.854 242.44 165.854Z" fill="#231733"/>
<path d="M205.42 172.605C205.42 172.605 206.16 178.365 205.42 178.755C204.68 179.145 192.72 179.525 191.95 178.755C191.18 177.985 199.15 173.405 199.41 172.415C199.67 171.425 205.42 172.605 205.42 172.605Z" fill="#231733"/>
<path d="M212.67 103.375C212.67 103.375 198.98 102.374 197.61 103.884C196.24 105.394 192.11 128.514 192.35 136.514C192.59 144.514 194.47 173.224 195.89 172.714C195.89 172.714 210.89 173.024 211.14 172.714C211.39 172.404 210.7 141.714 210.6 140.314C210.5 138.914 211.52 120.254 216.35 107.534C219.18 100.074 215.35 104.195 212.67 103.375Z" fill="#1E3865"/>
<path d="M213.42 99.5942C213.42 99.5942 206.42 108.374 205.79 110.354C205.16 112.334 211.24 134.994 214.79 142.144C218.34 149.294 232.71 172.254 233.79 171.144C234.87 170.034 246.021 164.674 246.111 164.304C246.201 163.934 231.47 139.764 230.77 138.494C230.07 137.224 227.72 113.935 224.28 105.685C221.26 98.3745 216.19 99.1942 213.42 99.5942Z" fill="#25468F"/>
<path d="M214.039 72.4644C214.039 72.4644 211.219 77.0144 207.539 76.2944C205.279 75.8544 207.059 73.3545 207.059 73.3545C205.527 73.9493 204.031 74.6336 202.579 75.4043C197.759 77.7943 196.269 81.3543 196.949 88.4043C197.399 92.9843 196.569 103.404 196.569 103.404H227.569C227.569 103.404 226.909 94.0342 225.779 83.3042C224.899 74.9642 219.309 73.4042 218.679 73.0542C218.429 72.8842 214.409 72.5144 214.039 72.4644Z" fill="#FDDBBA"/>
<path d="M190.76 91.2843C190.76 91.2843 194.87 82.5746 198.12 79.3346C201.37 76.0946 203.59 91.1945 203.59 91.1945L190.76 91.2843Z" fill="#FDDBBA"/>
<path d="M206.601 97.1143C206.601 97.1143 215.171 99.7344 221.861 93.9844C221.861 93.9844 224.74 100.985 224.25 102.665C223.76 104.345 204.851 105.205 204.851 105.205L206.601 97.1143Z" fill="#F8CAA4"/>
<path d="M209.16 91.2847H185.2V111.835H209.16V91.2847Z" fill="white"/>
<path d="M208.25 102.634C208.25 102.634 204.69 104.395 204.85 105.205C205.01 106.015 207.51 105.205 207.51 105.205C207.51 105.205 205.08 106.824 205.24 107.474C205.4 108.124 207.91 107.474 207.91 107.474C207.91 107.474 205.4 108.744 205.91 109.734C206.15 110.224 208.14 108.734 211.19 108.284C214.24 107.834 230.81 107.674 232.83 104.794C234.85 101.914 228.72 85.8745 228.24 85.8745C227.76 85.8745 220.71 88.2945 220.63 89.1045C220.55 89.9145 223.36 98.5741 223.14 98.9741C222.45 100.224 211.76 101.214 208.25 102.634Z" fill="#FCA692"/>
<path d="M184.89 104.464C184.89 104.464 187.73 103.534 188.18 104.014C188.63 104.494 185.18 105.804 185.18 105.804C185.18 105.804 189.18 105.174 188.28 106.244C187.412 106.882 186.485 107.435 185.51 107.894C185.51 107.894 188.77 107.304 188.77 107.654C188.77 108.394 185.77 110.074 184.45 109.964C183.13 109.854 182.31 105.394 184.89 104.464Z" fill="#FCA692"/>
<path d="M220.01 92.8845C220.01 92.8845 230.61 91.5945 231.56 89.8845C232.51 88.1745 228.8 78.6248 225.79 75.6648C222.78 72.7048 216.99 72.7844 216.99 72.7844C216.99 72.7844 215.62 89.3045 220.01 92.8845Z" fill="#FDDBBA"/>
</svg>
